<svg xmlns="http://www.w3.org/2000/svg" width="720" height="220" viewBox="0 0 720 220">
<style>
  .petal { animation: fall linear infinite; }
  @keyframes fall {
    0%   { transform: translateY(0) rotate(0deg); opacity: 0; }
    10%  { opacity: 0.9; }
    100% { transform: translateY(200px) rotate(300deg); opacity: 0; }
  }
  .star { animation: twinkle ease-in-out infinite; }
  @keyframes twinkle {
    0%, 100% { opacity: 0.25; transform: scale(0.8); }
    50%      { opacity: 1;    transform: scale(1.15); }
  }
  .cloud { animation: drift ease-in-out infinite; }
  @keyframes drift {
    0%, 100% { transform: translateX(-18px); }
    50%      { transform: translateX(18px); }
  }
  .bob { animation: bob ease-in-out infinite; }
  @keyframes bob {
    0%, 100% { transform: translateY(0); }
    50%      { transform: translateY(-5px); }
  }
  .tail { animation: sway ease-in-out infinite; transform-origin: 585px 185px; }
  @keyframes sway {
    0%, 100% { transform: rotate(-12deg); }
    50%      { transform: rotate(12deg); }
  }
</style>
<defs>
  <linearGradient id="sky" x1="0" y1="0" x2="0" y2="1">
    <stop offset="0" stop-color="#FFE9F4"/>
    <stop offset="1" stop-color="#EAF2FF"/>
  </linearGradient>
</defs>
<rect width="720" height="220" fill="url(#sky)"/>
<ellipse cx="360" cy="238" rx="400" ry="52" fill="#FFD9E8"/>
<g class="cloud" style="animation-delay:0.0s"><ellipse cx="130" cy="42" rx="34" ry="12" fill="#FFFFFF" opacity="0.85"/><ellipse cx="106" cy="45" rx="18" ry="8" fill="#FFFFFF" opacity="0.85"/><ellipse cx="156" cy="46" rx="16" ry="7" fill="#FFFFFF" opacity="0.85"/></g><g class="cloud" style="animation-delay:1.3s"><ellipse cx="330" cy="55" rx="34" ry="12" fill="#FFFFFF" opacity="0.85"/><ellipse cx="306" cy="58" rx="18" ry="8" fill="#FFFFFF" opacity="0.85"/><ellipse cx="356" cy="59" rx="16" ry="7" fill="#FFFFFF" opacity="0.85"/></g><g class="cloud" style="animation-delay:2.6s"><ellipse cx="540" cy="35" rx="34" ry="12" fill="#FFFFFF" opacity="0.85"/><ellipse cx="516" cy="38" rx="18" ry="8" fill="#FFFFFF" opacity="0.85"/><ellipse cx="566" cy="39" rx="16" ry="7" fill="#FFFFFF" opacity="0.85"/></g>
<g class="star" style="animation-delay:0.0s"><path d="M95 38 L97 43 L102 45 L97 47 L95 52 L93 47 L88 45 L93 43 Z" fill="#FFE9A8"/></g><g class="star" style="animation-delay:0.7s"><path d="M210 53 L212 58 L217 60 L212 62 L210 67 L208 62 L203 60 L208 58 Z" fill="#FFE9A8"/></g><g class="star" style="animation-delay:1.4s"><path d="M395 18 L397 23 L402 25 L397 27 L395 32 L393 27 L388 25 L393 23 Z" fill="#FFE9A8"/></g><g class="star" style="animation-delay:2.0999999999999996s"><path d="M500 63 L502 68 L507 70 L502 72 L500 77 L498 72 L493 70 L498 68 Z" fill="#FFE9A8"/></g><g class="star" style="animation-delay:2.8s"><path d="M610 28 L612 33 L617 35 L612 37 L610 42 L608 37 L603 35 L608 33 Z" fill="#FFE9A8"/></g><g class="star" style="animation-delay:3.5s"><path d="M690 73 L692 78 L697 80 L692 82 L690 87 L688 82 L683 80 L688 78 Z" fill="#FFE9A8"/></g>
<g class="petal" style="animation-delay:0s;animation-duration:9s"><ellipse cx="60" cy="120" rx="7" ry="4.5" fill="#FFC7DC" transform="rotate(25 60 120)"/></g><g class="petal" style="animation-delay:2.2s;animation-duration:10s"><ellipse cx="140" cy="40" rx="7" ry="4.5" fill="#FFC7DC" transform="rotate(25 140 40)"/></g><g class="petal" style="animation-delay:1.1s;animation-duration:12s"><ellipse cx="240" cy="90" rx="7" ry="4.5" fill="#FFC7DC" transform="rotate(25 240 90)"/></g><g class="petal" style="animation-delay:3.1s;animation-duration:9s"><ellipse cx="330" cy="30" rx="7" ry="4.5" fill="#FFC7DC" transform="rotate(25 330 30)"/></g><g class="petal" style="animation-delay:0.6s;animation-duration:11s"><ellipse cx="420" cy="110" rx="7" ry="4.5" fill="#FFC7DC" transform="rotate(25 420 110)"/></g><g class="petal" style="animation-delay:2.6s;animation-duration:10s"><ellipse cx="510" cy="50" rx="7" ry="4.5" fill="#FFC7DC" transform="rotate(25 510 50)"/></g><g class="petal" style="animation-delay:1.6s;animation-duration:12s"><ellipse cx="590" cy="100" rx="7" ry="4.5" fill="#FFC7DC" transform="rotate(25 590 100)"/></g><g class="petal" style="animation-delay:3.6s;animation-duration:9s"><ellipse cx="670" cy="20" rx="7" ry="4.5" fill="#FFC7DC" transform="rotate(25 670 20)"/></g>
<g class="bob" transform="translate(110,79)"><rect x="24" y="0" width="6" height="6" fill="#8CCBA6"/><rect x="30" y="0" width="6" height="6" fill="#8CCBA6"/><rect x="36" y="0" width="6" height="6" fill="#8CCBA6"/><rect x="42" y="0" width="6" height="6" fill="#8CCBA6"/><rect x="48" y="0" width="6" height="6" fill="#8CCBA6"/><rect x="54" y="0" width="6" height="6" fill="#8CCBA6"/><rect x="60" y="0" width="6" height="6" fill="#8CCBA6"/><rect x="66" y="0" width="6" height="6" fill="#8CCBA6"/><rect x="12" y="6" width="6" height="6" fill="#8CCBA6"/><rect x="18" y="6" width="6" height="6" fill="#8CCBA6"/><rect x="24" y="6" width="6" height="6" fill="#A8E0C0"/><rect x="30" y="6" width="6" height="6" fill="#A8E0C0"/><rect x="36" y="6" width="6" height="6" fill="#A8E0C0"/><rect x="42" y="6" width="6" height="6" fill="#A8E0C0"/><rect x="48" y="6" width="6" height="6" fill="#A8E0C0"/><rect x="54" y="6" width="6" height="6" fill="#A8E0C0"/><rect x="60" y="6" width="6" height="6" fill="#A8E0C0"/><rect x="66" y="6" width="6" height="6" fill="#A8E0C0"/><rect x="72" y="6" width="6" height="6" fill="#8CCBA6"/><rect x="78" y="6" width="6" height="6" fill="#8CCBA6"/><rect x="6" y="12" width="6" height="6" fill="#8CCBA6"/><rect x="12" y="12" width="6" height="6" fill="#A8E0C0"/><rect x="18" y="12" width="6" height="6" fill="#A8E0C0"/><rect x="24" y="12" width="6" height="6" fill="#A8E0C0"/><rect x="30" y="12" width="6" height="6" fill="#A8E0C0"/><rect x="36" y="12" width="6" height="6" fill="#A8E0C0"/><rect x="42" y="12" width="6" height="6" fill="#A8E0C0"/><rect x="48" y="12" width="6" height="6" fill="#A8E0C0"/><rect x="54" y="12" width="6" height="6" fill="#A8E0C0"/><rect x="60" y="12" width="6" height="6" fill="#A8E0C0"/><rect x="66" y="12" width="6" height="6" fill="#A8E0C0"/><rect x="72" y="12" width="6" height="6" fill="#A8E0C0"/><rect x="78" y="12" width="6" height="6" fill="#A8E0C0"/><rect x="84" y="12" width="6" height="6" fill="#8CCBA6"/><rect x="0" y="18" width="6" height="6" fill="#8CCBA6"/><rect x="6" y="18" width="6" height="6" fill="#A8E0C0"/><rect x="12" y="18" width="6" height="6" fill="#A8E0C0"/><rect x="18" y="18" width="6" height="6" fill="#A8E0C0"/><rect x="24" y="18" width="6" height="6" fill="#A8E0C0"/><rect x="30" y="18" width="6" height="6" fill="#A8E0C0"/><rect x="36" y="18" width="6" height="6" fill="#A8E0C0"/><rect x="42" y="18" width="6" height="6" fill="#A8E0C0"/><rect x="48" y="18" width="6" height="6" fill="#A8E0C0"/><rect x="54" y="18" width="6" height="6" fill="#A8E0C0"/><rect x="60" y="18" width="6" height="6" fill="#A8E0C0"/><rect x="66" y="18" width="6" height="6" fill="#A8E0C0"/><rect x="72" y="18" width="6" height="6" fill="#A8E0C0"/><rect x="78" y="18" width="6" height="6" fill="#A8E0C0"/><rect x="84" y="18" width="6" height="6" fill="#A8E0C0"/><rect x="90" y="18" width="6" height="6" fill="#8CCBA6"/><rect x="0" y="24" width="6" height="6" fill="#8CCBA6"/><rect x="6" y="24" width="6" height="6" fill="#A8E0C0"/><rect x="12" y="24" width="6" height="6" fill="#A8E0C0"/><rect x="18" y="24" width="6" height="6" fill="#A8E0C0"/><rect x="24" y="24" width="6" height="6" fill="#A8E0C0"/><rect x="30" y="24" width="6" height="6" fill="#A8E0C0"/><rect x="36" y="24" width="6" height="6" fill="#A8E0C0"/><rect x="42" y="24" width="6" height="6" fill="#A8E0C0"/><rect x="48" y="24" width="6" height="6" fill="#A8E0C0"/><rect x="54" y="24" width="6" height="6" fill="#A8E0C0"/><rect x="60" y="24" width="6" height="6" fill="#A8E0C0"/><rect x="66" y="24" width="6" height="6" fill="#A8E0C0"/><rect x="72" y="24" width="6" height="6" fill="#A8E0C0"/><rect x="78" y="24" width="6" height="6" fill="#A8E0C0"/><rect x="84" y="24" width="6" height="6" fill="#A8E0C0"/><rect x="90" y="24" width="6" height="6" fill="#8CCBA6"/><rect x="0" y="30" width="6" height="6" fill="#8CCBA6"/><rect x="6" y="30" width="6" height="6" fill="#A8E0C0"/><rect x="12" y="30" width="6" height="6" fill="#A8E0C0"/><rect x="18" y="30" width="6" height="6" fill="#A8E0C0"/><rect x="24" y="30" width="6" height="6" fill="#A8E0C0"/><rect x="30" y="30" width="6" height="6" fill="#A8E0C0"/><rect x="36" y="30" width="6" height="6" fill="#A8E0C0"/><rect x="42" y="30" width="6" height="6" fill="#A8E0C0"/><rect x="48" y="30" width="6" height="6" fill="#A8E0C0"/><rect x="54" y="30" width="6" height="6" fill="#A8E0C0"/><rect x="60" y="30" width="6" height="6" fill="#A8E0C0"/><rect x="66" y="30" width="6" height="6" fill="#A8E0C0"/><rect x="72" y="30" width="6" height="6" fill="#A8E0C0"/><rect x="78" y="30" width="6" height="6" fill="#A8E0C0"/><rect x="84" y="30" width="6" height="6" fill="#A8E0C0"/><rect x="90" y="30" width="6" height="6" fill="#8CCBA6"/><rect x="0" y="36" width="6" height="6" fill="#8CCBA6"/><rect x="6" y="36" width="6" height="6" fill="#A8E0C0"/><rect x="12" y="36" width="6" height="6" fill="#A8E0C0"/><rect x="18" y="36" width="6" height="6" fill="#FFE8D1"/><rect x="24" y="36" width="6" height="6" fill="#FFE8D1"/><rect x="30" y="36" width="6" height="6" fill="#FFE8D1"/><rect x="36" y="36" width="6" height="6" fill="#FFE8D1"/><rect x="42" y="36" width="6" height="6" fill="#FFE8D1"/><rect x="48" y="36" width="6" height="6" fill="#FFE8D1"/><rect x="54" y="36" width="6" height="6" fill="#FFE8D1"/><rect x="60" y="36" width="6" height="6" fill="#FFE8D1"/><rect x="66" y="36" width="6" height="6" fill="#FFE8D1"/><rect x="72" y="36" width="6" height="6" fill="#FFE8D1"/><rect x="78" y="36" width="6" height="6" fill="#A8E0C0"/><rect x="84" y="36" width="6" height="6" fill="#A8E0C0"/><rect x="90" y="36" width="6" height="6" fill="#8CCBA6"/><rect x="0" y="42" width="6" height="6" fill="#8CCBA6"/><rect x="6" y="42" width="6" height="6" fill="#A8E0C0"/><rect x="12" y="42" width="6" height="6" fill="#A8E0C0"/><rect x="18" y="42" width="6" height="6" fill="#FFE8D1"/><rect x="24" y="42" width="6" height="6" fill="#4E8A5E"/><rect x="30" y="42" width="6" height="6" fill="#4E8A5E"/><rect x="36" y="42" width="6" height="6" fill="#FFE8D1"/><rect x="42" y="42" width="6" height="6" fill="#FFE8D1"/><rect x="48" y="42" width="6" height="6" fill="#FFE8D1"/><rect x="54" y="42" width="6" height="6" fill="#FFE8D1"/><rect x="60" y="42" width="6" height="6" fill="#FFE8D1"/><rect x="66" y="42" width="6" height="6" fill="#4E8A5E"/><rect x="72" y="42" width="6" height="6" fill="#4E8A5E"/><rect x="78" y="42" width="6" height="6" fill="#FFE8D1"/><rect x="84" y="42" width="6" height="6" fill="#A8E0C0"/><rect x="90" y="42" width="6" height="6" fill="#8CCBA6"/><rect x="0" y="48" width="6" height="6" fill="#8CCBA6"/><rect x="6" y="48" width="6" height="6" fill="#A8E0C0"/><rect x="12" y="48" width="6" height="6" fill="#A8E0C0"/><rect x="18" y="48" width="6" height="6" fill="#FFE8D1"/><rect x="24" y="48" width="6" height="6" fill="#FFE8D1"/><rect x="30" y="48" width="6" height="6" fill="#FFE8D1"/><rect x="36" y="48" width="6" height="6" fill="#FFE8D1"/><rect x="42" y="48" width="6" height="6" fill="#FFE8D1"/><rect x="48" y="48" width="6" height="6" fill="#FFE8D1"/><rect x="54" y="48" width="6" height="6" fill="#FFE8D1"/><rect x="60" y="48" width="6" height="6" fill="#FFE8D1"/><rect x="66" y="48" width="6" height="6" fill="#FFE8D1"/><rect x="72" y="48" width="6" height="6" fill="#FFE8D1"/><rect x="78" y="48" width="6" height="6" fill="#A8E0C0"/><rect x="84" y="48" width="6" height="6" fill="#A8E0C0"/><rect x="90" y="48" width="6" height="6" fill="#8CCBA6"/><rect x="0" y="54" width="6" height="6" fill="#8CCBA6"/><rect x="6" y="54" width="6" height="6" fill="#A8E0C0"/><rect x="12" y="54" width="6" height="6" fill="#A8E0C0"/><rect x="18" y="54" width="6" height="6" fill="#FFE8D1"/><rect x="24" y="54" width="6" height="6" fill="#FFE8D1"/><rect x="30" y="54" width="6" height="6" fill="#FFC9DE"/><rect x="36" y="54" width="6" height="6" fill="#FFE8D1"/><rect x="42" y="54" width="6" height="6" fill="#FFE8D1"/><rect x="48" y="54" width="6" height="6" fill="#FFE8D1"/><rect x="54" y="54" width="6" height="6" fill="#FFE8D1"/><rect x="60" y="54" width="6" height="6" fill="#FFE8D1"/><rect x="66" y="54" width="6" height="6" fill="#FFC9DE"/><rect x="72" y="54" width="6" height="6" fill="#FFE8D1"/><rect x="78" y="54" width="6" height="6" fill="#FFE8D1"/><rect x="84" y="54" width="6" height="6" fill="#A8E0C0"/><rect x="90" y="54" width="6" height="6" fill="#8CCBA6"/><rect x="0" y="60" width="6" height="6" fill="#8CCBA6"/><rect x="6" y="60" width="6" height="6" fill="#A8E0C0"/><rect x="12" y="60" width="6" height="6" fill="#A8E0C0"/><rect x="18" y="60" width="6" height="6" fill="#FFE8D1"/><rect x="24" y="60" width="6" height="6" fill="#FFE8D1"/><rect x="30" y="60" width="6" height="6" fill="#FFE8D1"/><rect x="36" y="60" width="6" height="6" fill="#FFE8D1"/><rect x="42" y="60" width="6" height="6" fill="#FFE8D1"/><rect x="48" y="60" width="6" height="6" fill="#FFE8D1"/><rect x="54" y="60" width="6" height="6" fill="#FFE8D1"/><rect x="60" y="60" width="6" height="6" fill="#FFE8D1"/><rect x="66" y="60" width="6" height="6" fill="#FFE8D1"/><rect x="72" y="60" width="6" height="6" fill="#FFE8D1"/><rect x="78" y="60" width="6" height="6" fill="#A8E0C0"/><rect x="84" y="60" width="6" height="6" fill="#A8E0C0"/><rect x="90" y="60" width="6" height="6" fill="#8CCBA6"/><rect x="0" y="66" width="6" height="6" fill="#8CCBA6"/><rect x="6" y="66" width="6" height="6" fill="#A8E0C0"/><rect x="12" y="66" width="6" height="6" fill="#A8E0C0"/><rect x="18" y="66" width="6" height="6" fill="#FFE8D1"/><rect x="24" y="66" width="6" height="6" fill="#FFE8D1"/><rect x="30" y="66" width="6" height="6" fill="#FFE8D1"/><rect x="36" y="66" width="6" height="6" fill="#FFE8D1"/><rect x="42" y="66" width="6" height="6" fill="#E58CA5"/><rect x="48" y="66" width="6" height="6" fill="#FFE8D1"/><rect x="54" y="66" width="6" height="6" fill="#FFE8D1"/><rect x="60" y="66" width="6" height="6" fill="#FFE8D1"/><rect x="66" y="66" width="6" height="6" fill="#FFE8D1"/><rect x="72" y="66" width="6" height="6" fill="#FFE8D1"/><rect x="78" y="66" width="6" height="6" fill="#A8E0C0"/><rect x="84" y="66" width="6" height="6" fill="#A8E0C0"/><rect x="90" y="66" width="6" height="6" fill="#8CCBA6"/><rect x="0" y="72" width="6" height="6" fill="#8CCBA6"/><rect x="6" y="72" width="6" height="6" fill="#A8E0C0"/><rect x="12" y="72" width="6" height="6" fill="#A8E0C0"/><rect x="18" y="72" width="6" height="6" fill="#FFE8D1"/><rect x="24" y="72" width="6" height="6" fill="#FFE8D1"/><rect x="30" y="72" width="6" height="6" fill="#FFE8D1"/><rect x="36" y="72" width="6" height="6" fill="#FFE8D1"/><rect x="42" y="72" width="6" height="6" fill="#FFE8D1"/><rect x="48" y="72" width="6" height="6" fill="#FFE8D1"/><rect x="54" y="72" width="6" height="6" fill="#FFE8D1"/><rect x="60" y="72" width="6" height="6" fill="#FFE8D1"/><rect x="66" y="72" width="6" height="6" fill="#FFE8D1"/><rect x="72" y="72" width="6" height="6" fill="#FFE8D1"/><rect x="78" y="72" width="6" height="6" fill="#A8E0C0"/><rect x="84" y="72" width="6" height="6" fill="#A8E0C0"/><rect x="90" y="72" width="6" height="6" fill="#8CCBA6"/><rect x="0" y="78" width="6" height="6" fill="#8CCBA6"/><rect x="6" y="78" width="6" height="6" fill="#A8E0C0"/><rect x="12" y="78" width="6" height="6" fill="#A8E0C0"/><rect x="18" y="78" width="6" height="6" fill="#FFE8D1"/><rect x="24" y="78" width="6" height="6" fill="#FFE8D1"/><rect x="30" y="78" width="6" height="6" fill="#FFE8D1"/><rect x="36" y="78" width="6" height="6" fill="#FFE8D1"/><rect x="42" y="78" width="6" height="6" fill="#FFE8D1"/><rect x="48" y="78" width="6" height="6" fill="#FFE8D1"/><rect x="54" y="78" width="6" height="6" fill="#FFE8D1"/><rect x="60" y="78" width="6" height="6" fill="#FFE8D1"/><rect x="66" y="78" width="6" height="6" fill="#FFE8D1"/><rect x="72" y="78" width="6" height="6" fill="#FFE8D1"/><rect x="78" y="78" width="6" height="6" fill="#A8E0C0"/><rect x="84" y="78" width="6" height="6" fill="#A8E0C0"/><rect x="90" y="78" width="6" height="6" fill="#8CCBA6"/><rect x="0" y="84" width="6" height="6" fill="#8CCBA6"/><rect x="6" y="84" width="6" height="6" fill="#A8E0C0"/><rect x="12" y="84" width="6" height="6" fill="#A8E0C0"/><rect x="18" y="84" width="6" height="6" fill="#FFE8D1"/><rect x="24" y="84" width="6" height="6" fill="#FFE8D1"/><rect x="30" y="84" width="6" height="6" fill="#FFE8D1"/><rect x="36" y="84" width="6" height="6" fill="#FFE8D1"/><rect x="42" y="84" width="6" height="6" fill="#FFE8D1"/><rect x="48" y="84" width="6" height="6" fill="#FFE8D1"/><rect x="54" y="84" width="6" height="6" fill="#FFE8D1"/><rect x="60" y="84" width="6" height="6" fill="#FFE8D1"/><rect x="66" y="84" width="6" height="6" fill="#FFE8D1"/><rect x="72" y="84" width="6" height="6" fill="#FFE8D1"/><rect x="78" y="84" width="6" height="6" fill="#A8E0C0"/><rect x="84" y="84" width="6" height="6" fill="#A8E0C0"/><rect x="90" y="84" width="6" height="6" fill="#8CCBA6"/><rect x="0" y="90" width="6" height="6" fill="#8CCBA6"/><rect x="6" y="90" width="6" height="6" fill="#8CCBA6"/><rect x="12" y="90" width="6" height="6" fill="#A8E0C0"/><rect x="18" y="90" width="6" height="6" fill="#A8E0C0"/><rect x="24" y="90" width="6" height="6" fill="#A8E0C0"/><rect x="30" y="90" width="6" height="6" fill="#A8E0C0"/><rect x="36" y="90" width="6" height="6" fill="#FFE8D1"/><rect x="42" y="90" width="6" height="6" fill="#FFE8D1"/><rect x="48" y="90" width="6" height="6" fill="#FFE8D1"/><rect x="54" y="90" width="6" height="6" fill="#FFE8D1"/><rect x="60" y="90" width="6" height="6" fill="#A8E0C0"/><rect x="66" y="90" width="6" height="6" fill="#A8E0C0"/><rect x="72" y="90" width="6" height="6" fill="#A8E0C0"/><rect x="78" y="90" width="6" height="6" fill="#A8E0C0"/><rect x="84" y="90" width="6" height="6" fill="#8CCBA6"/><rect x="90" y="90" width="6" height="6" fill="#8CCBA6"/><rect x="24" y="96" width="6" height="6" fill="#FFE8D1"/><rect x="30" y="96" width="6" height="6" fill="#FFE8D1"/><rect x="36" y="96" width="6" height="6" fill="#FFE8D1"/><rect x="42" y="96" width="6" height="6" fill="#FFE8D1"/><rect x="48" y="96" width="6" height="6" fill="#FFE8D1"/><rect x="54" y="96" width="6" height="6" fill="#FFE8D1"/><rect x="12" y="102" width="6" height="6" fill="#A8E0C0"/><rect x="18" y="102" width="6" height="6" fill="#C9B8E8"/><rect x="24" y="102" width="6" height="6" fill="#C9B8E8"/><rect x="30" y="102" width="6" height="6" fill="#C9B8E8"/><rect x="36" y="102" width="6" height="6" fill="#C9B8E8"/><rect x="42" y="102" width="6" height="6" fill="#C9B8E8"/><rect x="48" y="102" width="6" height="6" fill="#C9B8E8"/><rect x="54" y="102" width="6" height="6" fill="#C9B8E8"/><rect x="60" y="102" width="6" height="6" fill="#C9B8E8"/><rect x="66" y="102" width="6" height="6" fill="#C9B8E8"/><rect x="72" y="102" width="6" height="6" fill="#C9B8E8"/><rect x="78" y="102" width="6" height="6" fill="#A8E0C0"/><rect x="6" y="108" width="6" height="6" fill="#A8E0C0"/><rect x="12" y="108" width="6" height="6" fill="#C9B8E8"/><rect x="18" y="108" width="6" height="6" fill="#C9B8E8"/><rect x="24" y="108" width="6" height="6" fill="#C9B8E8"/><rect x="30" y="108" width="6" height="6" fill="#C9B8E8"/><rect x="36" y="108" width="6" height="6" fill="#C9B8E8"/><rect x="42" y="108" width="6" height="6" fill="#C9B8E8"/><rect x="48" y="108" width="6" height="6" fill="#C9B8E8"/><rect x="54" y="108" width="6" height="6" fill="#C9B8E8"/><rect x="60" y="108" width="6" height="6" fill="#C9B8E8"/><rect x="66" y="108" width="6" height="6" fill="#C9B8E8"/><rect x="72" y="108" width="6" height="6" fill="#C9B8E8"/><rect x="78" y="108" width="6" height="6" fill="#C9B8E8"/><rect x="84" y="108" width="6" height="6" fill="#A8E0C0"/><rect x="0" y="114" width="6" height="6" fill="#A8E0C0"/><rect x="6" y="114" width="6" height="6" fill="#8CCBA6"/><rect x="12" y="114" width="6" height="6" fill="#B39DD8"/><rect x="18" y="114" width="6" height="6" fill="#C9B8E8"/><rect x="24" y="114" width="6" height="6" fill="#C9B8E8"/><rect x="30" y="114" width="6" height="6" fill="#C9B8E8"/><rect x="36" y="114" width="6" height="6" fill="#C9B8E8"/><rect x="42" y="114" width="6" height="6" fill="#C9B8E8"/><rect x="48" y="114" width="6" height="6" fill="#C9B8E8"/><rect x="54" y="114" width="6" height="6" fill="#C9B8E8"/><rect x="60" y="114" width="6" height="6" fill="#C9B8E8"/><rect x="66" y="114" width="6" height="6" fill="#C9B8E8"/><rect x="72" y="114" width="6" height="6" fill="#C9B8E8"/><rect x="78" y="114" width="6" height="6" fill="#B39DD8"/><rect x="84" y="114" width="6" height="6" fill="#8CCBA6"/><rect x="90" y="114" width="6" height="6" fill="#A8E0C0"/></g>
<!-- cat -->
<g class="bob" style="animation-delay:0.4s">
  <path class="tail" d="M 585 185 Q 615 175 625 158 Q 630 150 622 152 Q 610 165 588 172 Z" fill="#B8B8C8"/>
  <ellipse cx="565" cy="176" rx="26" ry="18" fill="#D8D8E4"/>
  <circle cx="565" cy="152" r="17" fill="#D8D8E4"/>
  <path d="M 551 143 L 549 128 L 559 138 Z" fill="#D8D8E4"/>
  <path d="M 579 143 L 581 128 L 571 138 Z" fill="#D8D8E4"/>
  <path d="M 551 141 L 553 129 L 557 137 Z" fill="#FFC7DC"/>
  <path d="M 579 141 L 577 129 L 573 137 Z" fill="#FFC7DC"/>
  <path d="M 559 154 Q 562 150 565 154 Q 568 150 571 154" stroke="#9A9AAE" stroke-width="1.6" fill="none" stroke-linecap="round"/>
  <circle cx="559" cy="153" r="1.3" fill="#9A9AAE"/>
  <circle cx="571" cy="153" r="1.3" fill="#9A9AAE"/>
  <ellipse cx="565" cy="158" rx="1.6" ry="1.1" fill="#E58CA5"/>
  <path d="M 541 154 L 531 152 M 541 158 L 531 159 M 589 154 L 599 152 M 589 158 L 599 159" stroke="#B8B8C8" stroke-width="1.2" stroke-linecap="round"/>
</g>
</svg>
